<?xml version="1.0" encoding="UTF-8"?>
<svg width="366px" height="100px" viewBox="0 0 366 100" version="1.1" xmlns="http://www.w3.org/2000/svg" xmlns:xlink="http://www.w3.org/1999/xlink">
    <!-- Generator: Sketch 42 (36781) - http://www.bohemiancoding.com/sketch -->
    <title>zielinski</title>
    <desc>Created with Sketch.</desc>
    <defs></defs>
    <g id="Logo" stroke="none" stroke-width="1" fill="none" fill-rule="evenodd">
        <g id="zielinski" fill="#000000">
            <polygon id="Combined-Shape" points="38.4453782 30.7692308 38.4453782 23.0769231 0 23.0769231 0 30.7692308 30.7563025 30.7692308 0 92.3076923 0 100 38.4453782 100 38.4453782 92.3076923 7.68907563 92.3076923"></polygon>
            <rect id="Rectangle-9" x="176.848739" y="23.0769231" width="7.68907563" height="76.9230769"></rect>
            <rect id="Rectangle-3" x="50.7478992" y="23.0769231" width="7.68907563" height="76.9230769"></rect>
            <path d="M76.8907563,83.0774921 L76.8907563,39.9994309 C76.8907563,31.5030568 83.7539887,24.0282714 92.2169169,23.3361624 C92.2169169,23.3361624 94.5756303,23.0769231 96.1134454,23.0769231 C97.6512605,23.0769231 100.009974,23.3361624 100.009974,23.3361624 C108.474379,24.0426573 115.336134,31.5025023 115.336134,39.9994309 L115.336134,65.3846154 L84.5798319,65.3846154 L84.5798319,82.2801023 C84.5798319,87.6858112 88.9422117,92.4652677 94.3234798,92.9529414 C94.3234798,92.9529414 95.1907563,93.0769231 96.1134454,93.0769231 C97.0361345,93.0769231 97.8972696,92.953446 97.8972696,92.953446 C103.285539,92.4766101 107.647059,87.6868749 107.647059,82.2801023 L107.647059,79.2307692 L115.336134,79.2307692 L115.336134,83.0774921 C115.336134,91.5738663 108.472902,99.0486516 100.009974,99.7407607 C100.009974,99.7407607 97.6512605,100 96.1134454,100 C94.5756303,100 92.2169169,99.7407607 92.2169169,99.7407607 C83.7525121,99.0342657 76.8907563,91.5744208 76.8907563,83.0774921 Z M84.5798319,40.7968208 L84.5798319,57.6923077 L107.647059,57.6923077 L107.647059,40.7968208 C107.647059,35.3911119 103.284679,30.6116554 97.903411,30.1239817 C97.903411,30.1239817 97.0361345,30 96.1134454,30 C95.1907563,30 94.3296211,30.1234771 94.3296211,30.1234771 C88.9413514,30.600313 84.5798319,35.3900482 84.5798319,40.7968208 Z" id="Combined-Shape"></path>
            <polygon id="Combined-Shape" points="141.478992 92.3076923 141.478992 23.0769231 133.789916 23.0769231 133.789916 100 164.546218 100 164.546218 92.3076923"></polygon>
            <rect id="Rectangle-10" x="199.915966" y="0" width="38.4453782" height="7.69230769"></rect>
            <path d="M230.672269,100 L238.361345,100 L238.361345,40.0012603 C238.361345,31.5051093 231.499589,24.0426573 223.035184,23.3361624 C223.035184,23.3361624 220.676471,23.0769231 219.138655,23.0769231 C217.60084,23.0769231 215.242127,23.3361624 215.242127,23.3361624 C206.779199,24.0282714 199.915966,31.5038758 199.915966,40.0012603 L199.915966,100 L207.605042,100 L207.605042,40.7945049 C207.605042,35.3890114 211.966562,30.600313 217.354831,30.1234771 C217.354831,30.1234771 218.215966,30 219.138655,30 C220.061345,30 220.928621,30.1239817 220.928621,30.1239817 C226.309889,30.6116554 230.672269,35.3866392 230.672269,40.7945049 L230.672269,100 Z" id="Combined-Shape"></path>
            <path d="M267.263678,52.6972253 C265.861448,51.5936121 264.566306,50.0004839 264.566306,50.0004839 C262.686884,47.9699993 261.449216,45.2842441 261.428571,42.3269228 C261.428557,42.3248854 261.428557,41.9326682 261.428561,41.5455979 C261.428565,41.1675971 261.428571,40.7945049 261.428571,40.7945049 C261.428571,35.3890114 265.790091,30.600313 271.178361,30.1234771 C271.178361,30.1234771 272.039496,30 272.962185,30 C273.884874,30 274.75215,30.1239817 274.75215,30.1239817 C280.133419,30.6116554 284.495798,35.3866392 284.495798,40.7945049 L284.495798,48.0769231 L292.184874,48.0769231 L292.184874,40.0012603 C292.184874,31.5051093 285.323118,24.0426573 276.858713,23.3361624 C276.858713,23.3361624 274.5,23.0769231 272.962185,23.0769231 C271.42437,23.0769231 269.065656,23.3361624 269.065656,23.3361624 C260.602728,24.0282714 253.739496,31.5038758 253.739496,40.0012603 L253.739496,42.5 C253.811064,47.6942379 255.967615,52.3912048 259.420857,55.8109525 C267.143387,61.9230769 270.632134,64.0044138 278.660691,70.3796978 C280.062922,71.483311 281.358064,73.0764392 281.358064,73.0764392 C283.237485,75.1069238 284.475154,77.792679 284.495798,80.7500003 C284.495814,80.7522 284.495812,81.2092216 284.495808,81.623533 C284.495804,81.9677129 284.495798,82.2824181 284.495798,82.2824181 C284.495798,87.6879117 280.134279,92.4766101 274.746009,92.953446 C274.746009,92.953446 273.884874,93.0769231 272.962185,93.0769231 C272.039496,93.0769231 271.172219,92.9529414 271.172219,92.9529414 C265.790951,92.4652677 261.428571,87.6902839 261.428571,82.2824181 L261.428571,75 L253.739496,75 L253.739496,83.0756627 C253.739496,91.5718138 260.601252,99.0342657 269.065656,99.7407607 C269.065656,99.7407607 271.42437,100 272.962185,100 C274.5,100 276.858713,99.7407607 276.858713,99.7407607 C285.321642,99.0486516 292.184874,91.5730473 292.184874,83.0756627 L292.184874,80.5769231 C292.113306,75.3826852 289.956754,70.6857183 286.503513,67.2659706 C278.396528,60.3846154 274.907782,59.0725092 267.263678,52.6972253 Z" id="Combined-Shape"></path>
            <polygon id="Combined-Shape" points="346.008403 23.0769231 336.397059 23.0769231 315.252101 56.9230769 315.252101 23.0769231 307.563025 23.0769231 307.563025 100 315.252101 100 315.252101 72.3076923 320.378151 64.1025641 338.319328 100 346.008403 100 324.64986 57.2649573"></polygon>
            <rect id="Rectangle-13" x="358.310924" y="23.0769231" width="7.68907563" height="76.9230769"></rect>
        </g>
    </g>
</svg>